<svg xmlns="http://www.w3.org/2000/svg" xmlns:xlink="http://www.w3.org/1999/xlink" version="1.1" width="256" height="256" viewBox="0 0 256 256" xml:space="preserve">

<defs>
</defs>
<g style="stroke: none; stroke-width: 0; stroke-dasharray: none; stroke-linecap: butt; stroke-linejoin: miter; stroke-miterlimit: 10; fill: none; fill-rule: nonzero; opacity: 1;" transform="translate(1.4065934065934016 1.4065934065934016) scale(2.81 2.81)" >
	<path d="M 45 0 C 20.147 0 0 20.147 0 45 c 0 24.853 20.147 45 45 45 s 45 -20.147 45 -45 C 90 20.147 69.853 0 45 0 z M 69.985 55.614 c -0.276 5.334 -4.566 9.7 -9.894 10.067 c -1.268 0.087 -2.493 -0.049 -3.639 -0.372 c -1.298 -0.366 -2.684 -0.276 -3.95 0.188 c -2.339 0.858 -4.866 1.327 -7.503 1.327 c -12.053 0 -21.824 -9.771 -21.824 -21.824 c 0 -0.008 0 -0.016 0 -0.024 c 0.002 -1.353 -0.366 -2.693 -1.159 -3.789 c -1.37 -1.894 -2.134 -4.256 -2.002 -6.802 c 0.276 -5.334 4.566 -9.7 9.894 -10.067 c 1.268 -0.087 2.493 0.049 3.639 0.372 c 1.298 0.366 2.684 0.276 3.95 -0.188 c 2.34 -0.858 4.866 -1.327 7.503 -1.327 c 12.053 0 21.824 9.771 21.824 21.824 c 0 0.008 0 0.016 0 0.024 c -0.002 1.353 0.366 2.692 1.159 3.789 C 69.354 50.707 70.117 53.069 69.985 55.614 z" style="stroke: none; stroke-width: 1; stroke-dasharray: none; stroke-linecap: butt; stroke-linejoin: miter; stroke-miterlimit: 10; fill: #cb0058; fill-rule: nonzero; opacity: 1;" transform=" matrix(1 0 0 1 0 0) " stroke-linecap="round" />
	<path d="M 45.617 35.839 c 3.514 0.334 5.859 2.943 5.937 3.043 c 1.078 1.443 3.12 1.749 4.574 0.68 c 1.461 -1.074 1.774 -3.128 0.701 -4.589 c -0.171 -0.233 -4.269 -5.699 -11.211 -5.699 c -10.995 0 -11.849 6.854 -11.849 8.955 c 0 6.746 6.326 8.25 10.511 9.246 c 4.938 1.174 6.165 2.187 6.004 3.566 c -0.131 1.129 -1.147 2.452 -5.593 2.311 c -3.692 -0.117 -6.299 -3.111 -6.309 -3.123 c -1.13 -1.417 -3.196 -1.65 -4.613 -0.52 c -1.418 1.13 -1.65 3.196 -0.52 4.613 c 0.182 0.228 4.541 5.594 11.442 5.594 c 2.246 0 4.852 -0.134 7.154 -1.125 c 3.227 -1.39 5.004 -4.142 5.004 -7.751 c 0 -7.325 -6.65 -8.906 -11.05 -9.953 c -4.712 -1.12 -5.466 -1.625 -5.466 -3.126 C 40.333 36.545 42.959 35.586 45.617 35.839 z" style="stroke: none; stroke-width: 1; stroke-dasharray: none; stroke-linecap: butt; stroke-linejoin: miter; stroke-miterlimit: 10; fill: #cb0058; fill-rule: nonzero; opacity: 1;" transform=" matrix(1 0 0 1 0 0) " stroke-linecap="round" />
</g>
</svg>