<svg xmlns="http://www.w3.org/2000/svg" xmlns:xlink="http://www.w3.org/1999/xlink" version="1.1" width="256" height="256" viewBox="0 0 256 256" xml:space="preserve">

<defs>
</defs>
<g style="stroke: none; stroke-width: 0; stroke-dasharray: none; stroke-linecap: butt; stroke-linejoin: miter; stroke-miterlimit: 10; fill: none; fill-rule: nonzero; opacity: 1;" transform="translate(5.096894080169946 2.5484470400849375) scale(2.76 2.76)" >
	<circle cx="45" cy="45" r="45" style="stroke: none; stroke-width: 1; stroke-dasharray: none; stroke-linecap: butt; stroke-linejoin: miter; stroke-miterlimit: 10; fill: #EE8251; fill-rule: nonzero; opacity: 1;" transform="  matrix(1 0 0 1 0 0) "/>
</g>
<g style="stroke: none; stroke-width: 0; stroke-dasharray: none; stroke-linecap: butt; stroke-linejoin: miter; stroke-miterlimit: 10; fill: none; fill-rule: nonzero; opacity: 1;" transform="translate(1.330046645682458 8.489969282111531) scale(2.66 2.66)" >
	<path d="M 38.547 52.997 l 22.092 16.322 c 2.522 1.391 4.34 0.671 4.969 -2.34 l 8.993 -42.377 c 0.921 -3.691 -1.407 -5.366 -3.819 -4.271 L 17.976 40.692 c -3.605 1.446 -3.583 3.457 -0.657 4.353 l 13.551 4.23 l 31.371 -19.792 c 1.481 -0.898 2.841 -0.415 1.725 0.575 L 38.547 52.997 z" style="stroke: none; stroke-width: 1; stroke-dasharray: none; stroke-linecap: butt; stroke-linejoin: miter; stroke-miterlimit: 10; fill: #fff; fill-rule: nonzero; opacity: 1;" transform=" matrix(1 0 0 1 0 0) " stroke-linecap="round" />
</g>
</svg>