<svg xmlns="http://www.w3.org/2000/svg" xmlns:xlink="http://www.w3.org/1999/xlink" version="1.1" width="256" height="256" viewBox="0 0 256 256" xml:space="preserve">

<defs>
</defs>
<g style="stroke: none; stroke-width: 0; stroke-dasharray: none; stroke-linecap: butt; stroke-linejoin: miter; stroke-miterlimit: 10; fill: none; fill-rule: nonzero; opacity: 1;" transform="translate(1.4065934065934016 1.4065934065934016) scale(2.81 2.81)" >
	<path d="M 45 0 L 45 0 C 20.147 0 0 20.147 0 45 v 0 c 0 24.853 20.147 45 45 45 h 0 c 24.853 0 45 -20.147 45 -45 v 0 C 90 20.147 69.853 0 45 0 z M 72.873 49.716 C 71.084 64.318 60.084 65.728 58.14 66.358 c -0.841 0.274 -8.246 2.126 -17.873 1.315 c -1.062 1.235 -2.472 2.852 -3.493 3.952 c -1.86 2.004 -3.004 3.864 -4.952 3.258 c -1.611 -0.499 -1.521 -2.945 -1.521 -2.945 l 0.009 -6.042 h -0.014 c -14.077 -3.96 -13.871 -18.564 -13.712 -26.357 c 0.159 -7.793 1.67 -14.078 5.965 -18.374 c 7.715 -7.077 23.542 -6.123 23.542 -6.123 c 13.421 0.059 19.446 4.433 20.937 5.809 C 71.979 25.143 74.719 34.664 72.873 49.716 z" style="stroke: none; stroke-width: 1; stroke-dasharray: none; stroke-linecap: butt; stroke-linejoin: miter; stroke-miterlimit: 10; fill: #cb0058; fill-rule: nonzero; opacity: 1;" transform=" matrix(1 0 0 1 0 0) " stroke-linecap="round" />
	<path d="M 63.898 23.893 c -1.261 -1.145 -6.701 -4.564 -18.054 -4.614 c 0 0 -13.444 -0.883 -19.969 5.028 c -3.632 3.586 -4.855 8.918 -4.99 15.427 c -0.135 6.509 -0.829 18.939 11.079 22.245 c 0 0 -0.047 9.231 -0.052 10.041 c -0.004 0.567 0.086 0.955 0.414 1.035 c 0.233 0.059 0.583 -0.061 0.88 -0.36 c 1.903 -1.911 7.997 -9.263 7.997 -9.263 c 8.178 0.534 14.682 -1.084 15.381 -1.309 c 1.645 -0.528 10.567 -1.294 12.077 -13.487 v -0.004 C 70.22 36.061 68.086 27.479 63.898 23.893 z M 58.938 53.557 c 0 0.006 -0.005 0.017 -0.005 0.023 c -0.62 1.074 -1.407 2.043 -2.331 2.87 c -0.011 0.005 -0.011 0.011 -0.021 0.016 c -0.803 0.671 -1.592 1.053 -2.367 1.144 c -0.114 0.02 -0.23 0.027 -0.346 0.022 c -0.342 0.003 -0.682 -0.049 -1.007 -0.155 l -0.025 -0.037 c -1.194 -0.337 -3.187 -1.179 -6.507 -3.011 c -1.921 -1.047 -3.75 -2.255 -5.467 -3.611 c -0.861 -0.679 -1.682 -1.407 -2.459 -2.181 l -0.083 -0.083 l -0.083 -0.083 l -0.083 -0.083 c -0.028 -0.027 -0.055 -0.055 -0.083 -0.083 c -0.773 -0.777 -1.501 -1.598 -2.181 -2.459 c -1.356 -1.717 -2.564 -3.546 -3.611 -5.466 c -1.831 -3.321 -2.674 -5.312 -3.011 -6.508 l -0.037 -0.025 c -0.106 -0.325 -0.158 -0.665 -0.154 -1.007 c -0.006 -0.116 0.001 -0.232 0.021 -0.346 c 0.097 -0.774 0.479 -1.563 1.146 -2.369 c 0.005 -0.01 0.011 -0.01 0.016 -0.021 c 0.827 -0.924 1.796 -1.711 2.87 -2.33 c 0.005 0 0.016 -0.005 0.023 -0.005 c 1.08 -0.563 2.105 -0.372 2.802 0.45 c 0.005 0.005 1.451 1.74 2.071 2.588 c 0.639 0.898 1.232 1.828 1.777 2.786 c 0.711 1.276 0.266 2.582 -0.433 3.121 l -1.409 1.12 c -0.711 0.574 -0.618 1.641 -0.618 1.641 s 2.087 7.899 9.885 9.89 c 0 0 1.067 0.09 1.641 -0.618 l 1.12 -1.409 c 0.54 -0.699 1.844 -1.144 3.121 -0.433 c 0.957 0.546 1.886 1.139 2.783 1.777 c 0.847 0.623 2.582 2.071 2.588 2.071 C 59.309 51.452 59.5 52.476 58.938 53.557 z M 45.873 31.193 c -0.418 -0.031 -0.732 -0.394 -0.702 -0.812 c 0.031 -0.418 0.396 -0.732 0.812 -0.702 c 3.23 0.236 5.794 1.368 7.622 3.362 c 1.832 2.001 2.728 4.518 2.664 7.48 c -0.009 0.413 -0.347 0.743 -0.758 0.743 c -0.006 0 -0.011 0 -0.017 0 c -0.419 -0.009 -0.752 -0.356 -0.742 -0.775 c 0.056 -2.594 -0.685 -4.695 -2.265 -6.422 C 50.907 32.343 48.744 31.403 45.873 31.193 z M 52.374 39.162 c 0.021 0.419 -0.302 0.775 -0.721 0.796 c -0.013 0.001 -0.026 0.001 -0.038 0.001 c -0.402 0 -0.737 -0.315 -0.758 -0.721 c -0.128 -2.579 -1.341 -3.84 -3.818 -3.97 c -0.419 -0.022 -0.74 -0.379 -0.718 -0.797 c 0.022 -0.419 0.377 -0.741 0.798 -0.718 C 50.39 33.922 52.207 35.793 52.374 39.162 z M 59.503 42.823 c -0.002 0 -0.004 0 -0.006 0 c -0.417 0 -0.756 -0.336 -0.759 -0.753 c -0.035 -4.58 -1.409 -8.224 -4.085 -10.832 c -2.681 -2.613 -6.068 -3.952 -10.068 -3.98 c -0.419 -0.003 -0.757 -0.345 -0.754 -0.764 c 0.003 -0.417 0.342 -0.754 0.759 -0.754 c 0.002 0 0.004 0 0.005 0 c 4.406 0.031 8.146 1.515 11.117 4.411 c 2.976 2.901 4.505 6.908 4.543 11.908 C 60.259 42.478 59.922 42.82 59.503 42.823 z" style="stroke: none; stroke-width: 1; stroke-dasharray: none; stroke-linecap: butt; stroke-linejoin: miter; stroke-miterlimit: 10; fill: #cb0058; fill-rule: nonzero; opacity: 1;" transform=" matrix(1 0 0 1 0 0) " stroke-linecap="round" />
</g>
</svg>